<svg width="25" height="24" viewBox="0 0 25 24" fill="none" xmlns="http://www.w3.org/2000/svg">
<g clip-path="url(#clip0_44_3041)">
<path d="M12.9805 2.163C16.1845 2.163 16.5645 2.175 17.8305 2.233C21.0825 2.381 22.6015 3.924 22.7495 7.152C22.8075 8.417 22.8185 8.797 22.8185 12.001C22.8185 15.206 22.8065 15.585 22.7495 16.85C22.6005 20.075 21.0855 21.621 17.8305 21.769C16.5645 21.827 16.1865 21.839 12.9805 21.839C9.77647 21.839 9.39647 21.827 8.13147 21.769C4.87147 21.62 3.36047 20.07 3.21247 16.849C3.15447 15.584 3.14247 15.205 3.14247 12C3.14247 8.796 3.15547 8.417 3.21247 7.151C3.36147 3.924 4.87647 2.38 8.13147 2.232C9.39747 2.175 9.77647 2.163 12.9805 2.163ZM12.9805 0C9.72147 0 9.31347 0.014 8.03347 0.072C3.67547 0.272 1.25347 2.69 1.05347 7.052C0.994469 8.333 0.980469 8.741 0.980469 12C0.980469 15.259 0.994469 15.668 1.05247 16.948C1.25247 21.306 3.67047 23.728 8.03247 23.928C9.31347 23.986 9.72147 24 12.9805 24C16.2395 24 16.6485 23.986 17.9285 23.928C22.2825 23.728 24.7105 21.31 24.9075 16.948C24.9665 15.668 24.9805 15.259 24.9805 12C24.9805 8.741 24.9665 8.333 24.9085 7.053C24.7125 2.699 22.2915 0.273 17.9295 0.073C16.6485 0.014 16.2395 0 12.9805 0ZM12.9805 5.838C9.57747 5.838 6.81847 8.597 6.81847 12C6.81847 15.403 9.57747 18.163 12.9805 18.163C16.3835 18.163 19.1425 15.404 19.1425 12C19.1425 8.597 16.3835 5.838 12.9805 5.838ZM12.9805 16C10.7715 16 8.98047 14.21 8.98047 12C8.98047 9.791 10.7715 8 12.9805 8C15.1895 8 16.9805 9.791 16.9805 12C16.9805 14.21 15.1895 16 12.9805 16ZM19.3865 4.155C18.5905 4.155 17.9455 4.8 17.9455 5.595C17.9455 6.39 18.5905 7.035 19.3865 7.035C20.1815 7.035 20.8255 6.39 20.8255 5.595C20.8255 4.8 20.1815 4.155 19.3865 4.155Z" fill="#B58E5A"/>
</g>
<defs>
<clipPath id="clip0_44_3041">
<rect width="24" height="24" fill="white" transform="translate(0.980469)"/>
</clipPath>
</defs>
</svg>
